<svg width="17" height="18" viewBox="0 0 17 18" fill="none" xmlns="http://www.w3.org/2000/svg">
<path d="M1.6001 4.2002H3.2001H16.0001" stroke="#101010" stroke-width="1.5" stroke-linecap="round" stroke-linejoin="round"/>
<path d="M14.4002 4.2V15.4C14.4002 15.8243 14.2316 16.2313 13.9316 16.5314C13.6315 16.8314 13.2245 17 12.8002 17H4.8002C4.37585 17 3.96888 16.8314 3.66882 16.5314C3.36877 16.2313 3.2002 15.8243 3.2002 15.4V4.2M5.6002 4.2V2.6C5.6002 2.17565 5.76877 1.76869 6.06883 1.46863C6.36888 1.16857 6.77585 1 7.2002 1H10.4002C10.8245 1 11.2315 1.16857 11.5316 1.46863C11.8316 1.76869 12.0002 2.17565 12.0002 2.6V4.2" stroke="#101010" stroke-width="1.5" stroke-linecap="round" stroke-linejoin="round"/>
<path d="M7.2002 8.2002V13.0002" stroke="#101010" stroke-width="1.5" stroke-linecap="round" stroke-linejoin="round"/>
<path d="M10.3999 8.2002V13.0002" stroke="#101010" stroke-width="1.5" stroke-linecap="round" stroke-linejoin="round"/>
</svg>
